<svg version="1.1" id="Layer_1"
  xmlns="http://www.w3.org/2000/svg"
  xmlns:xlink="http://www.w3.org/1999/xlink"
  viewBox="0 0 495 495"
  xml:space="preserve"
  fill="#000000">

  <g id="SVGRepo_bgCarrier" stroke-width="0"></g>
  <g id="SVGRepo_tracerCarrier" stroke-linecap="round" stroke-linejoin="round"></g>

  <g id="SVGRepo_iconCarrier">
    <g>
      <path
        style="fill:#4A4A4A;"
        d="M0,247.5V495h247.5V247.5H0z M145.508,398.049h-43.516v-40h43.516V398.049z M182.226,332.775H65.274 v-40h116.951V332.775z">
      </path>

      <path
        style="fill:#2F2F2F;"
        d="M247.5,495H495V247.5H247.5V495z M393.008,398.049h-43.516v-40h43.516V398.049z M323.654,292.775 h106.071v40H323.654V292.775z">
      </path>

      <path
        style="fill:#707070;"
        d="M247.5,0H0v247.5h247.5V0z M145.508,150.549h-43.516v-40h43.516V150.549z M182.226,85.275H65.274 v-40h116.951V85.275z">
      </path>

      <path
        style="fill:#4A4A4A;"
        d="M247.5,0v247.5H495V0H247.5z M393.008,150.549h-43.516v-40h43.516V150.549z M429.726,85.275H312.774 v-40h116.951V85.275z">
      </path>

      <rect
        x="312.774" y="45.275"
        style="fill:#FFFFFF;"
        width="116.951" height="40">
      </rect>

      <rect
        x="349.492" y="110.549"
        style="fill:#B5B5B5;"
        width="43.516" height="40">
      </rect>

      <rect
        x="65.274" y="45.275"
        style="fill:#FFFFFF;"
        width="116.951" height="40">
      </rect>

      <rect
        x="101.992" y="110.549"
        style="fill:#D0D0D0;"
        width="43.516" height="40">
      </rect>

      <rect
        x="323.654" y="292.775"
        style="fill:#FFFFFF;"
        width="106.071" height="40">
      </rect>

      <rect
        x="349.492" y="358.049"
        style="fill:#B5B5B5;"
        width="43.516" height="40">
      </rect>

      <rect
        x="65.274" y="292.775"
        style="fill:#FFFFFF;"
        width="116.951" height="40">
      </rect>

      <rect
        x="101.992" y="358.049"
        style="fill:#D0D0D0;"
        width="43.516" height="40">
      </rect>
    </g>
  </g>
</svg>
